<svg xmlns="http://www.w3.org/2000/svg" width="30.4" height="30.375" viewBox="0 0 30.4 30.375">
  <defs>
    <style>
      .cls-1 {
        fill: #a5aebe;
        fill-rule: evenodd;
      }
    </style>
  </defs>
  <path id="icon" class="cls-1" d="M1299.08,239.119c-4.2,0-8.55,3.5-8.55,6.647v4.748c0,2.074.94,6.272,3.6,8.4l-8.35,3.938s-1.89.847-1.89,1.9v2.851a1.9,1.9,0,0,0,1.89,1.9h26.59a1.9,1.9,0,0,0,1.9-1.9v-2.851c0-1.117-1.9-1.9-1.9-1.9l-8.26-3.921c2.63-2.072,3.52-6.141,3.52-8.422v-4.748c0-3.146-4.35-6.647-8.55-6.647h0Z" transform="translate(-1283.88 -239.125)"/>
</svg>
