<svg xmlns="http://www.w3.org/2000/svg" width="17.47" height="17.468" viewBox="0 0 17.47 17.468">
  <defs>
    <style>
      .cls-1 {
        fill: #a5aebe;
        fill-rule: evenodd;
      }
    </style>
  </defs>
  <path id="icon" class="cls-1" d="M1384.93,246.081c-2.41,0-4.92,2.013-4.92,3.822v2.73a6.867,6.867,0,0,0,2.07,4.833l-4.79,2.264s-1.1.487-1.1,1.093v1.639a1.094,1.094,0,0,0,1.1,1.092h15.29a1.092,1.092,0,0,0,1.09-1.092v-1.639a1.76,1.76,0,0,0-1.09-1.093l-4.76-2.254a6.631,6.631,0,0,0,2.03-4.843V249.9c0-1.809-2.51-3.822-4.92-3.822h0Z" transform="translate(-1376.19 -246.094)"/>
</svg>
