<svg xmlns="http://www.w3.org/2000/svg" width="21.094" height="18.22" viewBox="0 0 21.094 18.22">
  <defs>
    <style>
      .cls-1 {
        fill: #f34833;
        fill-rule: evenodd;
      }
    </style>
  </defs>
  <path id="error" class="cls-1" d="M860.808,2008.18l-9.545-16.28a0.859,0.859,0,0,0-1.612,0l-9.545,16.28a0.843,0.843,0,0,0,.806,1.38H860A0.843,0.843,0,0,0,860.808,2008.18Zm-8.739-.61a0.4,0.4,0,0,1-.4.4h-2.418a0.4,0.4,0,0,1-.4-0.4v-2.38a0.4,0.4,0,0,1,.4-0.39h2.418a0.4,0.4,0,0,1,.4.39v2.38Zm0-7.14a4.919,4.919,0,0,1-.079.79l-0.725,2.2a0.747,0.747,0,0,1-.482.58H850.15a0.75,0.75,0,0,1-.483-0.58l-0.741-2.1a6.082,6.082,0,0,1-.08-0.89v-3.17a0.4,0.4,0,0,1,.4-0.4h2.418a0.4,0.4,0,0,1,.4.4v3.17Z" transform="translate(-839.906 -1991.34)"/>
</svg>
