<svg xmlns="http://www.w3.org/2000/svg" width="90" height="39" viewBox="0 0 90 39">
  <defs>
    <style>
      .cls-1 {
        fill: #fff;
        fill-rule: evenodd;
      }
    </style>
  </defs>
  <path id="LOGO" class="cls-1" d="M68.052,35.841c4.275-10.534-3.724-13.389-8.943-13.386H41.847a2.436,2.436,0,0,1,.921,3.094L32.711,57.63A5.117,5.117,0,0,1,30,60.445l13.976,0A2.194,2.194,0,0,1,42.5,57.72l3.653-11.6S62.964,48.381,68.052,35.841ZM54.471,25.393c1.823,0,6.89.243,3.624,9.805-3.428,10.039-11.019,7.973-11.019,7.973L52.67,25.393h1.8ZM79.224,60.445l9.395,0a25.727,25.727,0,0,1-9.224-5.821,11.4,11.4,0,0,0,3.525-7.511H78.043a2.014,2.014,0,0,1,.939,1.676,6.122,6.122,0,0,1-1.246,3.545,18.7,18.7,0,0,1-3.487-8.056c1.907-.953,4.6-1.977,6.737-3.844A6.344,6.344,0,0,0,83.511,35.9V35.758a4.235,4.235,0,0,0-1.269-3.025A6.689,6.689,0,0,0,76.267,31.2a9.18,9.18,0,0,0-4.283,2.1c-2.844,2.648-3.21,7.031-3.21,9.008,0,0.482.021,0.848,0.041,1.062-0.162.065-.454,0.175-0.454,0.175-2.07.76-7.607,2.24-9.591,6.781a8.751,8.751,0,0,0-.611,3.269A7.2,7.2,0,0,0,59.233,57.5c1.4,2.175,3.77,3.553,7.555,3.487,4.125-.068,8.179-2.879,8.908-3.391A21.916,21.916,0,0,0,79.224,60.445Zm0-25.368c-0.489,3.059-4.452,6.141-5.422,6.561a10.507,10.507,0,0,1,1.35-6.646c0.956-1.466,2.214-2.114,3.237-1.759A1.517,1.517,0,0,1,79.222,35.077ZM73.7,55.51a13.122,13.122,0,0,1-4.785,1.643c-1.893.175-5.044-.557-5.038-4.348,0-3.237,3.533-5.6,5.438-6.427A27.493,27.493,0,0,0,73.7,55.51Zm34.092-30.077c5.584-1.335,10.193,3.024,10.608,3.324l1.6-5.065c-2.212-.661-18.24-6.079-29.563,6.834-6.961,7.941-8.671,24.209.163,28.57,9.463,4.667,19.9-.718,20.668-1.092l4.324-13.722a4.926,4.926,0,0,1,3.386-3.43H103.962c2.192,0.912,2.033,2.56,1.854,3.234l-4.311,13.723c-0.576.115-12.642,3.118-5.888-17.956C97.075,35.328,101.146,27.029,107.794,25.433Z" transform="translate(-30 -22)"/>
</svg>
