<svg xmlns="http://www.w3.org/2000/svg" width="21.656" height="21.65" viewBox="0 0 21.656 21.65">
  <defs>
    <style>
      .cls-1 {
        fill: #6abb4f;
        fill-rule: evenodd;
      }
    </style>
  </defs>
  <path id="check_solid_" data-name="check (solid)" class="cls-1" d="M859.146,2081.82a10.819,10.819,0,1,0,0,15.3A10.83,10.83,0,0,0,859.146,2081.82Zm-1.415,4.99-7.518,7.52a0.3,0.3,0,0,1-.411,0l-4.561-4.56a0.29,0.29,0,0,1,0-.41l1.885-1.89a0.3,0.3,0,0,1,.409,0l2.268,2.27a0.3,0.3,0,0,0,.411,0l5.207-5.21a0.3,0.3,0,0,1,.412,0l1.9,1.87A0.29,0.29,0,0,1,857.731,2086.81Z" transform="translate(-840.688 -2078.66)"/>
</svg>
